<svg id="Layer_1" enable-background="new 0 0 512 512" height="512" viewBox="0 0 512 512" width="512" xmlns="http://www.w3.org/2000/svg"><g><path d="m238 1.876h-179c-4.66 0-9.055 2.158-11.894 5.838-2.839 3.681-3.8 8.468-2.601 12.954 9.103 34.045 20.966 78.378 33.1 123.48-.181.827-1.677 43.97-1.677 64.935 0 73.393 7.261 146.844 20.446 206.823 5.812 26.439 12.547 48.747 19.476 64.512 5.959 13.557 15.775 31.58 32.15 31.58s26.191-18.023 32.15-31.58c6.929-15.765 13.664-38.073 19.476-64.512 13.185-59.978 20.446-133.43 20.446-206.823 0-20.957-.449-41.947-1.334-62.387-.002-.049-.011-.095-.013-.144 3.991-14.874 7.978-29.749 11.965-44.624 7.258-27.082 14.515-54.163 21.799-81.238 1.208-4.488.251-9.28-2.587-12.967-2.84-3.686-7.238-5.847-11.902-5.847zm-141.556 96.797c5.355 1.634 11.108 2.836 17.306 2.836 9.185 0 17.079-3.466 23.423-6.25 4.35-1.909 8.458-3.713 11.327-3.713s6.978 1.803 11.327 3.713c6.344 2.785 14.238 6.25 23.423 6.25 6.179 0 11.915-1.194 17.256-2.82-3.011 11.236-6.022 22.471-9.036 33.706h-85.968c-3.054-11.358-6.087-22.649-9.058-33.722zm10.246 63.612h82.62c.324 9.887.534 19.875.651 29.89h-83.922c.118-10.016.327-20.005.651-29.89zm111.764-130.519c-2.838 10.564-5.668 21.131-8.501 31.697-3.066 1.028-6.006 2.16-8.871 3.269-6.486 2.513-12.612 4.887-17.833 4.887-2.869 0-6.978-1.803-11.327-3.713-6.344-2.785-14.238-6.25-23.423-6.25s-17.079 3.466-23.423 6.25c-4.35 1.909-8.458 3.713-11.327 3.713-5.221 0-11.347-2.374-17.833-4.887-2.879-1.116-5.834-2.253-8.918-3.286-2.96-11.052-5.805-21.681-8.48-31.68zm-45.721 366.249c-9.299 46.41-19.041 69.946-24.733 79.728-5.692-9.781-15.434-33.318-24.733-79.728-10.449-52.146-16.509-114.158-17.258-175.949h83.983c-.75 61.791-6.81 123.803-17.259 175.949z"/><path d="m449.99 161.536c11.819-17.269 18.01-36.725 18.01-56.98 0-22.293-7.618-43.904-22.032-62.497-13.646-17.605-32.793-31.765-55.37-40.95-3.635-1.479-7.707-1.479-11.341 0-22.577 9.185-41.723 23.345-55.37 40.95-14.413 18.593-22.031 40.205-22.031 62.497 0 20.261 6.188 39.717 18.009 56.985-.474 1.137-.822 2.344-1.004 3.612-4.863 33.901-7.434 72.358-7.434 111.212 0 74.903 15.234 133.427 24.314 161.645 6.329 19.667 13.458 36.757 20.617 49.422 9.605 16.991 18.416 24.568 28.57 24.568s18.965-7.577 28.569-24.568c7.159-12.665 14.288-29.755 20.617-49.422 9.081-28.218 24.314-86.742 24.314-161.645 0-38.857-2.57-77.314-7.433-111.212-.182-1.27-.531-2.478-1.005-3.617zm-11.99-56.979c0 17.122-6.468 33.616-18.689 47.766h-68.763c-12.223-14.151-18.691-30.64-18.691-47.766 0-3.144.23-6.257.656-9.334 6.823 2.633 14.513 5.417 23.424 5.417 8.133 0 14.93-2.984 20.392-5.381 3.185-1.398 6.479-2.844 8.295-2.844 1.817 0 5.111 1.446 8.296 2.844 5.461 2.397 12.258 5.381 20.391 5.381 9.163 0 17.033-2.943 23.999-5.639.448 3.148.69 6.335.69 9.556zm-91.139 77.655h76.134c1.177 9.667 2.165 19.665 2.966 29.89h-82.066c.801-10.225 1.789-20.223 2.966-29.89zm38.067-150.956c18.43 8.61 32.865 21.074 41.999 35.697-5.06 1.961-9.835 3.796-13.615 3.796-1.817 0-5.11-1.446-8.295-2.844-5.462-2.397-12.259-5.381-20.392-5.381s-14.93 2.984-20.391 5.381c-3.185 1.398-6.479 2.844-8.296 2.844-3.657 0-8.25-1.721-13.129-3.609 9.127-14.704 23.61-27.237 42.119-35.884zm23.478 388.348c-8.629 29.25-17.644 47.97-23.478 57.265-5.834-9.295-14.848-28.015-23.478-57.265-9.134-30.959-20.022-80.94-20.022-143.239 0-11.542.239-23.037.699-34.372h85.602c.46 11.336.699 22.83.699 34.372 0 62.299-10.887 112.281-20.022 143.239z"/></g></svg>